<svg id="레이어_1" data-name="레이어 1" xmlns="http://www.w3.org/2000/svg" viewBox="0 0 1080 1080"><defs><style>.cls-1{fill:#004b9d;}.cls-2{fill:#fff;}.cls-3{fill:#0092d8;}.cls-4{fill:#e43d30;}</style></defs><path class="cls-1" d="M515.53.57C217.62,14-13,266.4.57,564.37s265.91,528.47,563.86,515.07,528.53-266,515-563.89S813.54-13,515.53.57Z"/><path class="cls-2" d="M373.68,233.93A72.53,72.53,0,0,0,337,276.33L219.78,628.41a73.29,73.29,0,0,0,46.4,92.67l384.22,129A73.44,73.44,0,0,0,743,803.68L860.17,451.6a73.43,73.43,0,0,0-46.33-92.71L429.62,230A72.63,72.63,0,0,0,373.68,233.93Z"/><path class="cls-3" d="M476,272.45c67.22,24.92,116.29,96.72,111.52,175a175,175,0,0,1-26.09,82.29,201.13,201.13,0,0,0-77.26-53.54L467,469.46v163.3L484.42,626a200.7,200.7,0,0,0,77-53.85,176.51,176.51,0,0,1-21,214.16l.17-.13-.17.2L273.83,697.23a48.12,48.12,0,0,1-30.76-60.48L360.59,284.43a47.36,47.36,0,0,1,59.56-30.6l.38.13Z"/><path class="cls-2" d="M407.23,642.63H380.85V459.7h26.38Z"/><path class="cls-4" d="M546.05,550.93A175.09,175.09,0,0,0,492.48,508v86A176.89,176.89,0,0,0,546.05,550.93Z"/><path class="cls-1" d="M805.38,382.32l-244.8-81.69a201.61,201.61,0,0,1,17.74,250.18A201.43,201.43,0,0,1,566.7,795l91.9,30.69a47.53,47.53,0,0,0,60-30.35l0-.13,117.52-352.3A48.24,48.24,0,0,0,805.38,382.32Zm-65,259.77h-33l-68-91.28,69.12-91.5H742l-69.36,91.5Z"/></svg>