<svg id="레이어_1" data-name="레이어 1" xmlns="http://www.w3.org/2000/svg" viewBox="0 0 1080 1080"><defs><style>.cls-1{fill:#f4002e;}.cls-2{fill:#fff;}</style></defs><path class="cls-1" d="M515.53.57C217.64,14-13,266.4.57,564.37s265.93,528.47,563.86,515.07,528.53-266,515-563.89S813.54-13,515.53.57Z"/><path class="cls-2" d="M311.39,658.59c-18-8.42-32.75-15.25-32.75-29,0-10.56,8.43-18.21,25-18.21A87,87,0,0,1,320,613.06a48.6,48.6,0,0,0,8,.88c14.49,0,22.72-8.64,28.08-25.12l2.16-6.74a153.22,153.22,0,0,0-57-11.34C252,570.74,226,602.32,226,635.11c0,16.52,5.23,28.47,13.31,37.95,10.41,12.12,25.31,20.07,39.22,26.87,20.3,9.94,38.6,17.28,38.6,32.06,0,13.09-13.54,20.54-31.58,20.54-24.82,0-46.5-14.15-49.25-15.88L216,774.8c3.63,2.05,29.79,18.7,73,18.7,46,0,80.78-26.37,80.78-67S337.5,671.25,311.39,658.59Z"/><path class="cls-2" d="M491.14,677.42l83.42-102.23H515.1l-66.49,88.22h-1V575.19h-49V791.78h2.89c21.17,0,46.38-9.81,46.38-45.17V696.93h1l67.81,92.19H579Z"/><path class="cls-2" d="M577.26,343.23c-17.28,3.26-42.75,18.88-42.7,46.57,0,25.12,20.65,40.35,20.69,73.29a58.31,58.31,0,0,1-28.34,50.71c6-.54,12.53-.86,19.72-.9a156.33,156.33,0,0,1,24.75,1.51l77.31-94.91A321.29,321.29,0,0,0,577.26,343.23Z"/><path class="cls-2" d="M642.28,599.49c9.74-15.12,11-39.27,11.79-63.89.88-22.94,5.68-40.2,36.37-40.33,6.83,0,13.31.93,25.06.89,45-.2,74.32-15.66,92.6-25.92a321.7,321.7,0,0,0-159.41-50.81c-4.32,12.42-38.62,107.64-41.23,115.33A125.11,125.11,0,0,1,621.32,555,224.79,224.79,0,0,1,642.28,599.49Z"/><path class="cls-2" d="M478.89,521.73c-3.88,0-5.83-2.59-6.48-7.08s-19.85-181.44-22.7-208.21c-.45-3.93-1.4-11.1-1.44-13.65a5.74,5.74,0,0,1,5.17-6.26,5.51,5.51,0,0,1,.7,0c9.16,0,59.12,11.66,112.13,48.81-15.32,4.32-42.92,20.18-42.82,53.05.13,29.12,21,45.15,21.06,74.35C544.8,510.24,490.32,521.71,478.89,521.73Z"/><path class="cls-2" d="M646.7,612.15a35.23,35.23,0,0,0,2.4,5.36,5.26,5.26,0,0,0,4.75,3,10.85,10.85,0,0,0,4.43-1.21c4.1-1.88,165.59-77,189.93-88.28,3.54-1.71,10.24-4.67,12.44-6a6,6,0,0,0,3.35-5.12,6.5,6.5,0,0,0-.93-3.18c-3-4.94-18.73-21.6-44.84-39.63C797.51,488.55,765.14,506.2,717,506.37c-11.84,0-14.5-.77-22.53-.71-23.57,0-29.4,10.13-30.24,30.72-.13,3.91-.2,9.18-.43,14.92C663,569.73,660.79,595.13,646.7,612.15Z"/></svg>