<svg id="레이어_1" data-name="레이어 1" xmlns="http://www.w3.org/2000/svg" viewBox="0 0 1080 1080"><defs><style>.cls-1{fill:#ff1400;}.cls-2{fill:#fff;}</style></defs><path class="cls-1" d="M515.53.57C217.64,14-13,266.4.57,564.37s265.91,528.47,563.86,515.07,528.53-266,515-563.89S813.54-13,515.53.57Z"/><path class="cls-2" d="M307.37,478.86c-19.89,0-34.17,6.48-45.77,23.17-7.41-14.56-22.57-23.17-43.68-23.17-16,0-35,8.31-42.5,21.38V483.3h-43.1V631h45.19V546c0-13.37,8.64-25.55,24.37-25.55,16.35,0,23.76,11,23.76,24.95V631h44.6v-85.3c0-13,8.64-25.25,24.64-25.25s23.48,11,23.48,24.95V631h43.7V535.3C362.06,495.19,335.32,478.86,307.37,478.86Z"/><path class="cls-2" d="M585.36,503.29V483.37h-43.7v147.7h45.19V566.51c0-29.42,16.35-40.11,34.56-40.11a60.74,60.74,0,0,1,14.28,1.49V483.3a45.57,45.57,0,0,0-11.9-1.49C611.82,481.81,593.11,486.57,585.36,503.29Z"/><rect class="cls-2" x="651.09" y="483.3" width="45.17" height="147.7"/><path class="cls-2" d="M778,440.21H737.55v19c0,13.65-7.41,24.06-22.87,24.06h-7.43v39.53H733.4v63.31c0,29.4,18.73,47.52,49.32,47.52,14.27,0,21.71-3.26,23.5-4.14V592.08a56,56,0,0,1-11.88,1.49c-9.83,0-16.35-3.28-16.35-15.46V522.83h28.83V483.3H778Z"/><path class="cls-2" d="M673.34,400.47a29.28,29.28,0,1,0,.37,0Z"/><path class="cls-2" d="M451.31,478c-38.77,0-74.54,30.65-74.54,78.73,0,50.2,36.72,79.64,77.76,79.64,33.87,0,56.4-17.28,65.94-39.44l-37.36-14.19c-4.89,9.09-13.76,14.86-28,14.86-17.73,0-33.07-12-34-28.84h104a95.31,95.31,0,0,0,.91-14.12C526.15,506.53,497.6,478,451.31,478Zm-29.16,61.3c.91-11.12,10.52-25.23,29.77-25.23,21.6,0,29.46,13.8,30,25.23Z"/><polygon class="cls-2" points="879.01 591.48 946.49 520.46 946.49 483.31 825.53 483.31 825.53 521.95 825.53 522.83 888 522.83 823.76 591.18 823.76 631.01 947.67 631.01 947.67 592.08 947.67 591.48 879.01 591.48"/></svg>