<svg id="레이어_1" data-name="레이어 1" xmlns="http://www.w3.org/2000/svg" viewBox="0 0 1080 1080"><defs><style>.cls-1{fill:#003f7e;}.cls-2{fill:#ef8200;}.cls-3{fill:#fff;}</style></defs><circle class="cls-1" cx="540" cy="540" r="540"/><path class="cls-2" d="M939.6,374.48c-23,94.46-105.06,145.67-152.73,173l-1.77-2.64c19.44-15.9,87.41-66.22,109.46-149.21Z"/><path class="cls-3" d="M390.2,374.48c-.88,8.83-18.55,130.66-20.3,142.15h38.88c.89-8.84,18.53-130.68,20.3-142.15Z"/><path class="cls-3" d="M709.8,374.48c-.89,8.83-18.54,130.66-20.31,142.15h91.83c.88-6.2,3.54-23,4.32-30.91H730.08l3.54-26.48h50.46c.89-6.18,2.64-21.19,4.32-28.26H738.07l3.54-25.61h53.85c.89-6.18,3.55-22.94,4.32-30.89Z"/><path class="cls-3" d="M274.54,455.76s32.66-75,35.31-81.22h49.44c0,9.7-6.17,131.55-6.17,142.15H317.8l6.2-99.81s-39.72,92.71-42.38,99.77H252.46l-12.35-98.88c-.89,4.32-14.13,70.63-21.19,99.74H183.6c3.54-12.35,30.91-134.17,32.66-142.12H264Z"/><path class="cls-3" d="M640.94,488.38s2.65,22.94,3.54,29.11h37.06C679.8,506,658.61,384.18,657.78,375.36H610c-2.64,6.18-56.51,128-63.57,142.13h38c1.77-4.32,11.47-28.25,11.47-28.25Zm-33.55-30,22.08-53,7.06,53Z"/><path class="cls-3" d="M483.84,401.76h8.83c6.18,0,12.36.89,16.79,5.29A18.08,18.08,0,0,1,513,421.18s-.89,10.6-8,14.12a25.59,25.59,0,0,1-13.24,3.55H474.14l33.55,77.76h37.08l-29.13-60.05c17.64-3.52,30.88-8.84,34.43-35.32a36.06,36.06,0,0,0,.88-9.72,35.38,35.38,0,0,0-8-23.76c-9.72-10.6-25.59-13.24-38-13.24H451.12c-.89,8.84-18.54,130.66-20.31,142.15h35.32c2.59-8,17.71-114.91,17.71-114.91"/><path class="cls-3" d="M611.28,612c.89,0,1.77,0,1.77-.88C613.05,612,612.17,612,611.28,612Z"/><path class="cls-3" d="M627.07,608.45a32.49,32.49,0,0,1-8.83,1.75,32.49,32.49,0,0,0,8.83-1.75"/><path class="cls-3" d="M636.77,605.79c-1.77.89-3.52.89-5.29,1.77,1.77-.88,3.52-.88,5.29-1.77"/><path class="cls-3" d="M688,590.78h0a64.76,64.76,0,0,1-12.35,3.54A50.59,50.59,0,0,0,688,590.78"/><path class="cls-3" d="M673.92,596.16c-1.77.89-3.54.89-5.29,1.77a12.4,12.4,0,0,1,5.29-1.77"/><path class="cls-3" d="M665.91,597.84c-6.18,1.78-11.47,3.55-18.54,5.3q10.61-2.64,18.54-5.3"/><path class="cls-3" d="M645.6,604c-1.77.89-3.54.89-5.29,1.77A12.49,12.49,0,0,1,645.6,604"/><path class="cls-3" d="M673.92,555.47c-.89,6.17-3.54,24.73-5.29,33.54,27.37-8,60.91-18.53,91.82-33.54Z"/><path class="cls-3" d="M416.88,619A41.28,41.28,0,0,0,404.52,612l-10.58-5.29h0c-3.54-1.77-11.49-6.18-11.49-14.13a10.79,10.79,0,0,1,4.32-8.83A16.65,16.65,0,0,1,400,581.06c7.06.89,14.13,5.32,22.94,12.38,4.43-8,11.49-23,14.13-28.25a68.72,68.72,0,0,0-33.55-15.12c-17.65-2.66-34.43.88-45.9,9.69A48.14,48.14,0,0,0,340,591.56v6.18a35.89,35.89,0,0,0,3.54,16.78h2.64c17.67,2.64,42.38,3.52,70.63,4.32"/><path class="cls-3" d="M601.45,586.38H655.3c.89-6.18,3.54-23,4.43-30.91H569.68c-.89,3.54-4.43,27.36-7.95,55.62l37.09-5.3Z"/><path class="cls-3" d="M688,590.78h0a64.76,64.76,0,0,1-12.35,3.54c-.89,0-.89.87-1.77.87-1.78.88-3.55.88-5.3,1.77-.88,0-1.77,0-1.77.88-6.18,1.78-11.49,3.55-17.67,5.3-.88,0-1.75.88-2.63.88-1.77.89-3.54.89-5.32,1.77-.86,0-2.63.89-3.52.89-1.77.88-3.54.88-5.29,1.77-.88,0-2.66.86-3.54.86a31.3,31.3,0,0,1-8.81,1.78c-1.77,0-2.66.88-4.43.88-.89,0-1.77,0-1.77.89h0c-15.88,3.52-32.66,7.06-51.19,10.58h-.89c-3.54.89-7.06.89-10.61,1.77h-1.75c-3.54.89-7.06.89-10.6,1.77h-.93c-19.44,2.64-39.72,5.3-60.91,7.07h0c-3.54,0-6.18.88-9.72.88h-.89c-3.52,0-7.06.89-10.58.89h-.89c-3.54,0-7.06.86-10.6.86h-.87a42.85,42.85,0,0,0-10.6.89h0c-17.65.88-37.09,1.77-55.62,1.77H359.51c-15.9,0-31.79-.89-47.69-1.77h0c-24.71-.89-50.33-3.52-76.81-6.18l30-28.25s17.65,5.31,41.5,9.72c-4.32-27.37-8.84-51.22-9.72-54.74H249.18c-2.64,6.18-56.51,128-63.57,142.13h38c1.77-4.32,15-35.32,15-35.32h39.73s3.54,30,4.32,35.32h37.08c-.88-4.32-4.32-25.6-8.83-51.19,26.5,1.75,53.87,1.75,78.58,1.75a16.67,16.67,0,0,1,1.77,7.06v2.66a17.34,17.34,0,0,1-4.32,8c-5.31,3.52-12.38,2.65-17.67,1.77-12.35-1.77-22.07-11.49-29.14-18.56-5.29,7.95-15.12,24.74-18.53,30,14.13,13.24,30,21.19,45.9,23,16.78,2.63,32.68-.89,45-10.61A48.6,48.6,0,0,0,432,661.41a53.76,53.76,0,0,0,.88-11.47c26.48-.88,49.44-2.65,63.57-4.32,4.32,3.55,7.06,7.07,7.06,12.36v2.66a17.25,17.25,0,0,1-4.32,8c-5.31,3.52-12.37,2.65-17.66,1.77-12.36-1.77-22.08-11.49-29.14-18.56-5.29,8-15.12,24.73-18.54,30,14.13,13.24,30,21.19,45.9,23,16.79,2.63,32.69-.89,45-10.61a48.56,48.56,0,0,0,19.44-32.66,55.19,55.19,0,0,0-.89-21.19c6.2-.88,11.5-1.77,17.67-2.65-4.32,30-8,57.39-8.83,62.64H644c.89-6.18,3.54-22.94,4.32-30.89H592.62l3.54-26.55h50.33c.88-5.31,2.63-17.67,3.52-25.62a58.06,58.06,0,0,0,10.6-3.52s16.77-5.29,38.88-13.24c-3.52,22.06-13.24,90-14.12,99.75h39.74c.87-7.93,15-106.81,15-106.81h29.14c.89-6.18,3.54-25.62,5.31-34.43-17.66,6.18-45.92,18.53-86.53,31.77"/><path class="cls-3" d="M515.81,612l-10.59-5.29h0c-3.54-1.77-11.49-6.18-11.49-14.13a10.82,10.82,0,0,1,4.32-8.83,16.65,16.65,0,0,1,13.24-2.66c7.07.89,14.13,5.32,23,12.38,4.32-8,11.47-23,14.13-28.25a68.87,68.87,0,0,0-33.57-15.12c-17.64-2.66-34.43.88-45.9,9.69a48.13,48.13,0,0,0-17.47,31.91v7.06a44.75,44.75,0,0,0,4.32,19.44c21.19-.89,43.2-1.77,66.2-3.52-1.75-.89-4.32-1.77-6.17-2.66"/></svg>