<svg id="레이어_1" data-name="레이어 1" xmlns="http://www.w3.org/2000/svg" viewBox="0 0 1080 1080"><defs><style>.cls-1{fill:#1328a1;}.cls-2{fill:#fff;}</style></defs><path class="cls-1" d="M515.53.57C217.64,14-13,266.4.57,564.37s265.93,528.47,563.86,515.07,528.53-266,515-563.89S813.54-13,515.53.57Z"/><g id="logo_samsung_white" data-name="logo samsung white"><g id="그룹_421" data-name="그룹 421"><path id="패스_40" data-name="패스 40" class="cls-2" d="M787.75,570.79l-1.51-85.86H813V593.16H774.55L747.9,504.37h-.54l1.49,88.79H722.17V484.93h40.11l24.82,85.86Z"/><path id="패스_41" data-name="패스 41" class="cls-2" d="M301.6,495.06l-14.75,99.36H257.63l20-109.39h48.06l19.89,109.3h-29l-14.4-99.23Z"/><path id="패스_42" data-name="패스 42" class="cls-2" d="M427.68,568.56,441,484.93h44l2.38,109.38H460.3L459.61,496H459L441,594.33H413.58L395.52,496h-.58l-.7,98.32h-27L369.58,485h44.06L427,568.58Z"/><path id="패스_43" data-name="패스 43" class="cls-2" d="M212.16,563.44a14.57,14.57,0,0,1,.21,8.12,9.36,9.36,0,0,1-10.52,7.33,9.74,9.74,0,0,1-10.8-8.49v-12H162v8.44c0,24.39,19,31.75,39.27,31.75,19.57,0,35.64-6.76,38.21-25a54.11,54.11,0,0,0-.13-17.91c-4.56-22.94-45.55-29.76-48.6-42.57a14.31,14.31,0,0,1-.13-5.72,8.94,8.94,0,0,1,9.87-7.35,9.25,9.25,0,0,1,10,8.4h0a9.64,9.64,0,0,1,0,1.52v6.76H237.6V509c0-23.76-21.12-27.54-36.42-27.54-19.2,0-34.9,6.48-37.82,24.27a38.75,38.75,0,0,0,.15,14.87C168.18,542.81,206.58,549.29,212.16,563.44Z"/><path id="패스_44" data-name="패스 44" class="cls-2" d="M563.44,563.23a14.45,14.45,0,0,1,.21,8,9.26,9.26,0,0,1-10.43,7.28,9.59,9.59,0,0,1-10.78-8.23.59.59,0,0,1,0-.13V558.21H513.78v8.36c0,24.15,18.79,31.45,38.88,31.45,19.33,0,35.25-6.67,37.8-24.77a53.35,53.35,0,0,0-.13-17.74c-4.5-22.7-45.1-29.44-48.11-42.12a13.93,13.93,0,0,1-.12-5.68,8.83,8.83,0,0,1,9.76-7.28,9.15,9.15,0,0,1,9.93,8.31h0a7.62,7.62,0,0,1,0,1.51v6.68h26.72v-7.63c0-23.56-20.93-27.26-36.09-27.26-19,0-34.56,6.35-37.39,24a37.76,37.76,0,0,0,.26,14.6C519.91,542.81,557.93,549.21,563.44,563.23Z"/><path id="패스_45" data-name="패스 45" class="cls-2" d="M654.13,577.91A9.71,9.71,0,0,0,664.5,570a22.42,22.42,0,0,0,.26-4.17V484.88h27.35v78.43c0,2-.18,6.11-.28,7.19-1.91,20.42-17.82,27-37.7,27s-35.81-6.63-37.71-27c0-1-.3-5.16-.24-7.19V484.9h27.33v81a21.29,21.29,0,0,0,.26,4.14A9.73,9.73,0,0,0,654.13,577.91Z"/><path id="패스_46" data-name="패스 46" class="cls-2" d="M879.51,576.73a10.11,10.11,0,0,0,11-8,21.34,21.34,0,0,0,.26-4.15V548.75H879.72V532.88H918v29.31a66.71,66.71,0,0,1-.39,7.21c-1.79,19.92-18.84,27-38,27s-36.2-7.08-38-27a66.71,66.71,0,0,1-.39-7.21V516.25c0-2,.24-5.38.46-7.22,2.41-20.43,18.74-27,37.92-27s35.92,6.48,37.93,27c.2,2.4.28,4.82.24,7.22v3.62H890.52v-6.13a22.42,22.42,0,0,0-.34-4.17,9.83,9.83,0,0,0-10.8-7.93,10,10,0,0,0-10.8,7.93,25.06,25.06,0,0,0-.44,5.18v50a25.07,25.07,0,0,0,.24,4.15A10.13,10.13,0,0,0,879.51,576.73Z"/></g></g></svg>