<svg id="레이어_1" data-name="레이어 1" xmlns="http://www.w3.org/2000/svg" viewBox="0 0 1080 1080"><defs><style>.cls-1{fill:#225712;}.cls-2{fill:#fff;}</style></defs><path class="cls-1" d="M515.53.57C217.62,14-13,266.4.57,564.37s265.91,528.47,563.86,515.07,528.53-266,515-563.89S813.54-13,515.53.57Z"/><path class="cls-2" d="M829,602.84l-36-23.4a83.53,83.53,0,0,1-90.7,1.06L556.76,488.84a31.61,31.61,0,0,0-33.68,0L377.59,580.5a83.58,83.58,0,0,1-90.7-1.06l-36,23.39C216.07,625.44,205,673.12,228.27,707.5a74.05,74.05,0,0,0,101.66,20.59L522.71,602.87a31.63,31.63,0,0,1,34.42,0L749.91,728.09A74,74,0,0,0,852.8,705.63C874.7,671.09,863.28,625.12,829,602.84Z"/><path class="cls-2" d="M367.07,563.79l151.37-95.36a40.27,40.27,0,0,1,43,0l151.37,95.36a63.75,63.75,0,0,0,88.33-20.59c18.45-30,7.89-69.53-21.93-88.31L735,427.05a71.93,71.93,0,0,1-90.52,8l-82-55.54a40.31,40.31,0,0,0-45.22,0L435.36,435a71.93,71.93,0,0,1-90.52-8l-44.23,27.86c-29.05,18.31-40,56.39-23.07,86.27A63.78,63.78,0,0,0,367.07,563.79Z"/><path class="cls-2" d="M425,419.68l105.5-71.49a16.83,16.83,0,0,1,18.9,0l105.5,71.49a53.48,53.48,0,1,0,60-88.55l-145-98.23a53.48,53.48,0,0,0-60,0L365,331.13a53.48,53.48,0,0,0,60,88.55Z"/><path class="cls-2" d="M562.73,674.56a26.68,26.68,0,0,0-45.46,0L430.6,815.67a26.68,26.68,0,0,0,22.74,40.64H626.66a26.68,26.68,0,0,0,22.74-40.64Z"/></svg>