<svg id="레이어_1" data-name="레이어 1" xmlns="http://www.w3.org/2000/svg" viewBox="0 0 1080 1080"><defs><style>.cls-1{fill:#0575ca;}.cls-2{fill:#fff;}</style></defs><path class="cls-1" d="M515.53.57C217.62,14-13,266.4.57,564.37s265.91,528.47,563.86,515.07,528.53-266,515-563.89S813.54-13,515.53.57Z"/><path class="cls-2" d="M525.31,216C346.43,224.12,208,375.73,216.11,554.64S375.8,872,554.69,863.89,872,704.17,863.89,525.26h0C855.78,346.41,704.24,208,525.42,216.11h-.11Zm33,316C609.38,579.11,656,622.28,656,622.28,725.9,697.75,686.54,754,667,768.74c-29.36,22.29-60,29.64-98.11,31.68-3.4.51-9.66-1.45-10-7.53-.21-6.48,9.25-8.1,9.25-8.1C653.06,768.05,626,712,596,683.59c-12.66-12-128.67-113.69-128.67-113.69C354.56,472.83,363.53,397,363.53,397c7.26-95.31,87.06-116.44,148.9-111.07,7.22.62,11.22,5,10,11.06-1.41,6.49-11,7-11,7-19.67,1.19-37.22,3.22-50.63,12.23-49.71,33.49-35,90.41,31.3,153.86,8.35,8,17.29,16.37,26.31,24.93C518.4,495.06,531.82,506.79,558.32,532ZM519.78,773.15c.54,9.11-21.61,13.08-46.88,10.6-31.73-3.12-69.58-13.15-102.61-41.66-30.26-26.25-49.13-62.35-58.25-94-9.36-32.43-13.23-70.37,2.16-67.38,4.78.9,13,21.79,21.85,37,9.19,15.66,16.71,24.35,23.78,29.64,3.13,2.4,14-21.72,29.74-35.41,9.12-7.54,19.11-10.16,20.75,12.41,2,27.69-3,60.53,5.08,60.53,7.57,0,24.56-5.71,61.93-8.9,14.05-1.22,22.09,1.47,8.65,20.38a141.3,141.3,0,0,1-36.75,37.94C481,764.05,519.09,760.44,519.78,773.15Zm25.05-289.42c-2.37-9.26-2.94-21-1-36.06,4-31.33,12.42-46.05,22-70.35,13-32.64-18.56-51.73-13.29-63.75,7.07-16.28,29.59,4.32,54.75,5.92,21.62,1.19,34.58,0,51.42,2.34,22.35,3,49.09,10.57,61,24.53,10.94,12.8-5.73,28.41-25.81,18.62-14.66-7.14-33.11-2.73-22.29,12.54,13,14.52,19.46,14.39,36.15,20.14,35.77,12.24,34.58,43.44,8.88,60.54-31,20.49-56.57,12.64-68-27.8-5.73-20.2-20-30.49-34.59-24.74s-5.94,32.28,5.13,56.88c22.06,56.43-32.82,54.52-39.21,53.74A45.61,45.61,0,0,1,544.83,483.73Z"/></svg>