<svg id="레이어_1" data-name="레이어 1" xmlns="http://www.w3.org/2000/svg" viewBox="0 0 1080 1080"><defs><style>.cls-1{fill:#0066b2;}.cls-2{fill:#fff;}</style></defs><circle class="cls-1" cx="540" cy="540" r="540"/><path class="cls-2" d="M216.13,548.94a8.94,8.94,0,0,1,8.7-9.17h.2l168.35-1a8.85,8.85,0,0,1,9.05,8.65v.33a6.91,6.91,0,0,1-.61,3.44L319,757.21h0a9.1,9.1,0,0,1-8.26,5.59,9.93,9.93,0,0,1-6.35-2.48c0-.13-.26-.24-.26-.39A323,323,0,0,1,216,549.33a.45.45,0,0,1,.13-.28Z"/><path class="cls-2" d="M394.44,817.75l99.85-248.4c.13,0,.13-.23.24-.34a49.2,49.2,0,0,1,89.94-3.89l105,250.56h0v.11a9.37,9.37,0,0,1,.65,3.43,8.9,8.9,0,0,1-4.32,7.78c-.13.15-.24.15-.37.26a324.37,324.37,0,0,1-143.29,34.58,320.86,320.86,0,0,1-143.51-32.4h-.11a9.08,9.08,0,0,1-4.86-7.93,9.43,9.43,0,0,1,.56-3.41S394.44,817.88,394.44,817.75Z"/><path class="cls-2" d="M678.24,549.33v-.28a11.39,11.39,0,0,1-.76-3.26,9.12,9.12,0,0,1,9-9.16L855,535.44a9,9,0,0,1,9,8.88v0a.32.32,0,0,1,.13.22,323.37,323.37,0,0,1-85,212.13.13.13,0,0,0-.13.13,9.85,9.85,0,0,1-6.48,2.79,9,9,0,0,1-8.29-5.55h0Z"/><path class="cls-2" d="M837.56,442.91l-197.25,1.38h-.76a8.88,8.88,0,0,1-7.56-5.51L616.2,400.87c-21.75-56-32.09-109.53-32-158.6h0l-.13-15.12a8.9,8.9,0,0,1,8.77-9h1.7A324.11,324.11,0,0,1,846,430.92l.13.11a6.38,6.38,0,0,1,.5,2.83,9,9,0,0,1-8.88,9.05Z"/><path class="cls-2" d="M461.87,402l-15.23,38.12h0a9.56,9.56,0,0,1-6.48,5.49h-.82a2.38,2.38,0,0,1-.75.15l-197.43,1.45a9.22,9.22,0,0,1-9.26-9,9.33,9.33,0,0,1,.49-2.77v-.15A324.73,324.73,0,0,1,480.9,219h.26a3.43,3.43,0,0,1,1.19-.17,9,9,0,0,1,9.16,8.94h0l.13,15.12h-.13C492.35,292.1,482.76,345.71,461.87,402Z"/></svg>