<svg id="레이어_1" data-name="레이어 1" xmlns="http://www.w3.org/2000/svg" viewBox="0 0 1080 1080"><defs><style>.cls-1{fill:#be1e24;}.cls-2{fill:#fff;}</style></defs><path class="cls-1" d="M515.53.57C217.64,14-13,266.4.57,564.37s265.91,528.47,563.86,515.07,528.53-266,515-563.89S813.54-13,515.53.57Z"/><path class="cls-2" d="M727.59,348.77c-31-22.22-68.28-24-83.14-3.23s-1.88,55.79,29,78.17,68.14,23.76,83.1,3S758.58,371,727.59,348.77Z"/><path class="cls-2" d="M540.15,216H540C417,216,309.92,284.7,255.13,385.86,181.63,521,213.13,693.51,337.41,793A323.45,323.45,0,0,0,466.49,855.6l1.59.36c1.9.43,3.8.85,5.71,1.24l2.34.48q2.56.51,5.13,1l2.5.45c1.78.31,3.55.6,5.33.89l2.21.35c2.42.36,4.85.71,7.28,1l.24,0c2.52.32,5,.6,7.57.87l2.43.22c1.69.17,3.39.32,5.09.46l3.17.23,4.27.27c1.24.07,2.48.14,3.72.19l3.4.13c1.52.06,3,.11,4.56.14h.72c2.09,0,4.19.08,6.29.08,173.15,0,314-135.86,323-306.72.37-5.79,1-11.45,1-17.28C864,361.26,719,216,540.15,216Zm146,306.2c-11.81,55,3.29,81.48-7.9,157.16C666,762.46,641.52,820.78,552.78,831.58,452.5,843.8,315.57,748.07,400,663.64c15.74-15.79,19.28-21.6,43.53-39.49C546.63,537,418,470.06,368,508.36c-47.11,39.29,0,129.6-49.83,112.7-54-18.64-68.09-115.81-15.61-168.35,22.69-22.74,65.61-40.26,75.87-65.34,17.24-41.64-8.65-76.27-55.5-65.14a306.32,306.32,0,0,1,217.14-90c166.9.05,302.74,133,307.5,298.87C809,483.32,717.9,434.63,686.16,522.2Z"/></svg>