<svg id="레이어_1" data-name="레이어 1" xmlns="http://www.w3.org/2000/svg" viewBox="0 0 1080 1080"><defs><style>.cls-1{fill:#6a2c00;}.cls-2{fill:#6c9bd2;}.cls-3{fill:#fff;}</style></defs><path class="cls-1" d="M515.53.57C217.64,14-13,266.4.57,564.37s265.91,528.47,563.86,515.07,528.53-266,515-563.89S813.54-13,515.53.57Z"/><path class="cls-2" d="M502.29,605.43c5.75,0,15.82,4.81,29.62,19.78,71.47,77.65,151.82,139.08,219.35,176.18,9.7,5.37,15.11,9.31,15.11,14.4,0,3.85-.57,7.76-9,7.76-15.18,0-100.34-16.79-122.89-27.4S563.21,746,505.19,646c-6.58-11.31-13.51-21-13.51-30.13S499.89,605.43,502.29,605.43Z"/><path class="cls-3" d="M695.16,319.53s14.13,27.87-123.43,47.25c15-42.47,24.89-70.45,24.89-70.45,8.78-25.42-11-40.32-25.15-40.32S546.93,267,541,280.64l-40.89,93.58c-53.64,3.66-93.47,1.7-111.36,0-24.92-2.5-31.34,11.32-31.34,25.42,0,24.59,43.33,49.48,71,46.82,17.49-1.65,27.6-2.42,41.81-3.85l-152,347.54c-5.77,13-10.5,33.86,15.63,33.86s84.87-23.83,94.68-51.5c4.16-11.64,34.42-97.47,68.2-193.14,16.65-3.32,78.09-12.83,95.2-12.83,16.21,0,24.51,7.33,24.51,15.91,0,20-48,77.43-141.12,148.27-10.26,7.75-1.83,13.91,3.46,13.91,14.37,0,78.5-44,110.3-68,34.82-26.35,95.83-94.95,95.83-143.15,0-19-8.41-36.44-46.57-36.44-37,0-102.28,8.23-116.21,10,9.05-25.66,18-50.88,26.3-74.43,72-10,114.91-16.49,140.18-21.75,34.82-7.33,62.75-27.37,62.75-48C751.39,319.05,695.16,319.53,695.16,319.53Z"/></svg>