<svg id="레이어_1" data-name="레이어 1" xmlns="http://www.w3.org/2000/svg" viewBox="0 0 1080 1080"><defs><style>.cls-1{fill:#f37321;}.cls-2{fill:#fff;}</style></defs><path class="cls-1" d="M515.53.57C217.64,14-13,266.4.57,564.37s265.93,528.47,563.86,515.07,528.53-266,515-563.89S813.54-13,515.53.57Z"/><path class="cls-2" d="M863.28,571.11c-4.73-46.4-33-88.56-75.14-119.86,11.32-58.62-3.33-114.24-46.85-153.77-90-81.71-269.14-63.87-400.22,40S176.58,591.67,266.5,673.36c35.9,32.68,86.14,49.4,141.74,51.11a164.35,164.35,0,0,0,41,63.44c69.12,66.2,182.58,60.09,253.17-13.72a195.86,195.86,0,0,0,31.47-43.39C816.63,707.25,870.87,644.89,863.28,571.11Zm-583.36,4.15c-27.82-106.41,52.16-231.12,178.5-278.51s251.33.56,279.11,107a170.37,170.37,0,0,1,4,20.15,293.71,293.71,0,0,0-119.05-26.13c-123.4-1-215.53,75-205.83,169.69a134.65,134.65,0,0,0,2.16,13.78,185.05,185.05,0,0,0-18.45,111.09c-59.29-16.61-104.93-57.74-120.39-117Zm441.17-36.9a166,166,0,0,0-15.94-17.69c-68.25-65.34-179.56-60.2-250.36,10.8,3.48-68.86,79.66-121.78,179.28-121a270.73,270.73,0,0,1,108.45,23.27c2.68,34.94-5.16,70.89-21.43,104.58Zm-7,144.49a259,259,0,0,1-49.55,4.32,276,276,0,0,1-67.31-8.92,436.32,436.32,0,0,0,69.47-45A403.11,403.11,0,0,0,717,586.16a155.78,155.78,0,0,1-2.87,96.69ZM423.58,599c13.24,38.52,42.68,72.67,81.9,97.81a249.58,249.58,0,0,1-82.44.6A155.07,155.07,0,0,1,423.58,599Zm156.73,74.35c-68.2-22.61-119-70.67-125-125.88-.15-1.26-.26-2.49-.34-3.72,2.16-2.48,4.32-5,6.61-7.34,60.78-63.49,158.32-68.74,217.81-11.8a140.51,140.51,0,0,1,28.25,38.19C679,608.39,634.76,648.16,580.31,673.32Zm96.76,69.36c-60.74,63.57-158.28,68.79-217.81,11.79a140.56,140.56,0,0,1-24-30.24A378.68,378.68,0,0,0,524.88,708a292,292,0,0,0,132.6,32.88c7.41,0,14.71-.18,21.9-.65-.77.75-1.51,1.62-2.31,2.44Zm76.9-71a174.47,174.47,0,0,0-17.28-109.37c24.92-33.3,41.69-68.34,49.68-102.6,32,24.46,53.24,56.16,57,90.72,5.75,52.86-30.82,98.46-89.44,121.25Z"/></svg>