<svg width="104" height="80" viewBox="0 0 104 80" fill="none" xmlns="http://www.w3.org/2000/svg">
<path d="M101.559 40.9886L100.679 40.38C98.9563 38.6861 96.9111 37.4218 94.6876 36.6765C92.464 35.9312 90.1162 35.723 87.8101 36.0667C83.7956 36.4254 79.9274 37.8624 76.5564 40.2476V40.036C76.588 38.3723 76.7023 36.7116 76.8989 35.0611C77.0457 33.3411 77.2169 31.6211 77.2169 29.9805C77.2689 28.4097 77.0276 26.8437 76.5074 25.3761C76.4452 25.2024 76.3333 25.0549 76.1881 24.9549C76.0429 24.855 75.8719 24.8078 75.7001 24.8204C73.8643 25.0071 72.0912 25.6404 70.5136 26.6728L70.1221 27.5725C70.1155 30.0907 69.8613 32.601 69.3637 35.0611C69.3096 35.2766 69.2442 35.4886 69.168 35.6962C68.5569 42.0298 68.5569 48.4151 69.168 54.7488C69.168 55.278 70.22 56.0984 70.9539 56.4159C72.6349 56.4605 74.3046 56.1083 75.8469 55.3838H76.4096C76.5218 55.368 76.6298 55.3275 76.727 55.2649C76.8242 55.2023 76.9086 55.119 76.975 55.0199C77.0414 54.9208 77.0885 54.8081 77.1132 54.6887C77.138 54.5693 77.14 54.4457 77.1191 54.3254V52.7641C77.7885 50.0479 79.1203 47.576 80.9752 45.6069C82.8301 43.6378 85.14 42.2438 87.6634 41.5707C88.9246 41.2754 90.2355 41.345 91.4639 41.7724C92.6923 42.1998 93.7948 42.97 94.6603 44.0053C95.2205 46.636 94.8078 49.3994 93.5104 51.7057C91.6831 54.9417 88.8453 57.3634 85.5105 58.5328C81.5918 60.043 77.4296 60.6734 73.2781 60.3852C73.0579 60.2529 68.7521 57.1039 68.7521 57.1039C64.7721 53.8159 60.4539 51.0366 55.8836 48.8213C54.8334 48.1875 53.8491 47.4334 52.9479 46.5721L52.532 46.1752C50.0855 44.0053 45.3149 40.6182 41.5228 37.8926L39.4923 36.3842V35.9344C39.4923 35.8021 41.9387 34.2673 41.9387 34.2673C43.7992 33.2734 45.5408 32.0383 47.1253 30.5891L47.5901 30.298L55.8592 25.2173C63.7858 20.5071 72.7888 15.1618 77.5105 9.86944L77.7307 9.04913V8.33461C78.011 7.36095 78.011 6.31815 77.7307 5.34448C77.6997 5.17449 77.6227 5.01824 77.5094 4.89573C77.3962 4.77321 77.2518 4.68994 77.0946 4.65645C73.4004 4.25952 68.6543 6.6411 64.324 11.0338C63.5231 11.8312 62.626 12.5077 61.6573 13.0448L60.9968 13.4153C56.1038 16.3526 45.4617 23.5767 39.8348 27.4931C40.3666 19.5544 41.3224 11.6555 42.6971 3.83614L42.5503 2.90996L41.9632 1.74563L41.5228 0.898826C40.6757 0.451966 39.6996 0.385446 38.8072 0.713654L37.6819 1.16346L36.1895 1.74563C36.0473 1.77833 35.9148 1.8486 35.8038 1.95018C35.6928 2.05176 35.6068 2.1815 35.5534 2.32779C32.5059 11.2748 30.6684 20.6508 30.0978 30.1657C25.9731 27.3663 21.7099 24.8134 17.3272 22.5182V22.5182H17.0336C15.9622 22.2293 14.95 21.7267 14.0489 21.0364L12.0183 19.6074L8.88683 17.4375L8.05503 17.2258C6.23065 17.8497 4.60929 19.025 3.38225 20.613C3.28888 20.781 3.23824 20.9726 3.23547 21.1686C3.25838 21.4381 3.30758 21.7043 3.38225 21.9625L3.52906 22.6505L3.67584 23.0739C6.45045 25.5908 9.49841 27.7323 12.7523 29.4512L17.0336 31.9122L23.6146 35.7757L24.74 36.7547L25.4984 37.231H25.6452C23.8837 38.4747 13.7064 45.8576 13.7064 45.8576L7.29661 50.6207C6.1219 51.3172 4.91321 51.9443 3.67584 52.4995C2.48587 52.9502 1.48096 53.8404 0.837917 55.0134L0.666664 55.4103L0.837917 55.675L1.32722 56.0719L1.96329 56.5218L2.67277 57.0246L3.30886 57.1568C5.34539 56.8581 7.31209 56.149 9.10702 55.0663C11.9205 53.7168 19.5535 48.7419 22.8318 46.625L24.2262 45.6989C24.8898 45.6018 25.5072 45.2772 25.9877 44.7727C26.9107 44.0347 27.8932 43.3882 28.9235 42.8409C28.9235 42.8409 29.4617 42.5234 29.9265 42.2588V42.6822C29.8694 50.9617 30.4752 59.231 31.7369 67.3976V67.3976V67.6622C32.4927 69.476 33.0589 71.3753 33.425 73.325L34.6482 77.8236L35.0152 78.247C36.3147 79.089 37.8064 79.5199 39.321 79.4907H39.688L39.9081 78.935C40.0291 78.2549 40.0865 77.5635 40.0794 76.871C40.0794 76.0507 40.0794 75.1509 40.0794 74.0395V72.4253C39.6146 64.8837 39.1742 53.902 39.1742 46.7573V46.1752L45.5351 50.5149C54.3424 56.6805 67.5533 66.048 75.7001 68.509C75.9024 68.5742 76.1169 68.5817 76.3227 68.5306C76.5285 68.4796 76.7185 68.3719 76.8744 68.2179L78.1221 67.3711H78.3423C78.6174 67.1302 78.836 66.8226 78.9806 66.4732C79.1251 66.1237 79.1914 65.7424 79.1741 65.36C85.9508 65.016 95.4187 62.1846 100.483 55.3045C102.292 52.811 103.289 49.7414 103.321 46.5721C103.429 44.6403 102.832 42.7398 101.657 41.2797" fill="#FCAF17"/>
</svg>
