<svg id="레이어_1" data-name="레이어 1" xmlns="http://www.w3.org/2000/svg" viewBox="0 0 1080 1080"><defs><style>.cls-1{fill:#0f7aed;}.cls-2{fill:#38d200;}.cls-3{fill:#fff;}</style></defs><path class="cls-1" d="M515.53.57C217.62,14-13,266.4.57,564.37s265.91,528.47,563.86,515.07,528.53-266,515-563.89S813.54-13,515.53.57Z"/><path class="cls-2" d="M668.8,349.92c-23.54,0-102.08,57.72-102.08,57.72s78.54,57.74,102.08,57.74c32.81,0,60.16-22.19,60.16-57.74S701.61,349.92,668.8,349.92Z"/><path class="cls-3" d="M401.76,864c23.54,0,102.08-57.72,102.08-57.72s-78.47-57.74-102.08-57.74c-32.81,0-60.15,22.19-60.15,57.74S369,864,401.76,864Z"/><path class="cls-3" d="M689.3,544,486,408.85l117.48-82.27c27.13-19,35.56-56.51,17-84a60.16,60.16,0,0,0-83.47-16.43l-.94.64L395.71,326a99.8,99.8,0,0,0,2.42,164.68L715.87,701.27C752,645.63,745,580.14,689.3,544Z"/><path class="cls-2" d="M364.48,525.73,714.87,751a60.08,60.08,0,0,1,18,83h0a60.08,60.08,0,0,1-83,18h0L400.57,691.76a120.15,120.15,0,0,1-36.09-166Z"/></svg>