<svg id="레이어_1" data-name="레이어 1" xmlns="http://www.w3.org/2000/svg" viewBox="0 0 1080 1080"><defs><style>.cls-1{fill:#d71921;}.cls-2{fill:#fff;}</style></defs><path class="cls-1" d="M515.53.57C217.62,14-13,266.4.57,564.37s265.91,528.47,563.86,515.07,528.53-266,515-563.89S813.54-13,515.53.57Z"/><path class="cls-2" d="M829.18,476.2h16.7a2,2,0,0,0,2-2V442.8a2,2,0,0,0-1.94-2H822.44c-27.13,0-41.52,8.64-49.68,27.08l-51,124.92c-3.09,7.45-7.54,11-16.33,11v-161a2,2,0,0,0-1.94-2H665.93a2,2,0,0,0-2,1.94v193a3.52,3.52,0,0,0,3.52,3.48h42c27.13,0,39.51-8.64,47.71-27.13l50.33-123.34c4.06-8.74,9.87-12.57,21.6-12.57"/><path class="cls-2" d="M371.18,540c15.12-6.23,27.49-20.27,27.49-43.57,0-34.56-29.72-55.64-65.6-55.64H222.29a2,2,0,0,0-2,2v31.45a2,2,0,0,0,2,2H325.41c16.63,0,27.88,10.17,27.88,22.68S342,521.58,325.41,521.58H264.17V498.19a2,2,0,0,0-2-2H222.29a2,2,0,0,0-2,2v139a2,2,0,0,0,2,2H331.48c40.82,0,70-19,70-57.86,0-19.08-11.25-34.84-30.24-41.39m-43.65,64.65H264.17V558.11h63.35c17.09,0,28.62,10.43,28.62,23.26s-11.53,23.26-28.62,23.26"/><path class="cls-2" d="M868,637l-64.24-82.21c-.17-.24-.47-.2-.54,0l-17.28,42.33a.79.79,0,0,0,0,.76L814,635.52a8.44,8.44,0,0,0,7.56,3.67h45.36a1.34,1.34,0,0,0,1.06-2.27"/><path class="cls-2" d="M471.9,496.2H434.36a2,2,0,0,0-2,2v139a2,2,0,0,0,2,2H471.9a2,2,0,0,0,2-2v-139a2,2,0,0,0-2-2"/><path class="cls-2" d="M626.18,440.77H588.73a2,2,0,0,0-2,2h0v161c-8.79,0-13.24-3.54-16.33-11l-51-124.91c-8.23-18.4-22.64-27.09-49.68-27.09h-35.4a2,2,0,0,0-2,2v31.45a2,2,0,0,0,2,2H463c11.8,0,17.65,3.82,21.6,12.57L534.9,612.11c8.21,18.46,20.59,27.13,47.69,27.13h42a3.5,3.5,0,0,0,3.52-3.48v-193a2,2,0,0,0-2-2h0"/></svg>