<svg id="레이어_1" data-name="레이어 1" xmlns="http://www.w3.org/2000/svg" viewBox="0 0 1080 1080"><defs><style>.cls-1{fill:#193282;}.cls-2{fill:#0090d0;}.cls-3{fill:#0099d7;}.cls-4{fill:#0081c8;}.cls-5{fill:#0070ba;}.cls-6{fill:#004b97;}.cls-7{fill:#0066b2;}.cls-8{fill:#00519b;}.cls-9{fill:#1a3180;}.cls-10{fill:#fff;}</style></defs><path class="cls-1" d="M515.53.57C217.62,14-13,266.4.57,564.37s265.91,528.47,563.86,515.07,528.53-266,515-563.89S813.54-13,515.53.57Z"/><rect class="cls-2" x="270" y="270" width="540" height="540"/><polygon class="cls-2" points="270 270.03 404.96 405.07 540 270.03 270 270.03"/><polygon class="cls-3" points="270 270.03 270 540 404.96 405.07 270 270.03"/><polygon class="cls-2" points="540 540 405.04 404.96 270 540 540 540"/><polygon class="cls-4" points="540 540 540 270.03 405.04 404.96 540 540"/><polygon class="cls-5" points="540 270.03 540 540 674.93 405.07 540 270.03"/><polygon class="cls-6" points="810 540 675.04 404.96 540 540 810 540"/><polygon class="cls-4" points="270 540 404.96 675.07 540 540 270 540"/><polygon class="cls-5" points="270 540 270 810.01 404.96 675.07 270 540"/><polygon class="cls-7" points="540 810.01 405.04 674.96 270 810.01 540 810.01"/><polygon class="cls-8" points="540 810.01 540 540 405.04 674.96 540 810.01"/><polygon class="cls-9" points="540 540 674.93 675.07 810 540 540 540"/><polygon class="cls-6" points="540 540 540 810.01 674.93 675.07 540 540"/><polygon class="cls-9" points="810 810.01 675.04 674.96 540 810.01 810 810.01"/><polygon class="cls-9" points="810 810.01 810 540 675.04 674.96 810 810.01"/><polygon class="cls-7" points="540 270.03 674.93 405.07 810 270.03 540 270.03"/><polygon class="cls-8" points="810 540 810 270.03 675.04 404.96 810 540"/><polygon class="cls-10" points="810 607.55 637.11 442.87 374.76 705.91 470.47 801.6 637.11 637.49 810 809.42 810 607.55"/></svg>