<svg id="레이어_1" data-name="레이어 1" xmlns="http://www.w3.org/2000/svg" viewBox="0 0 1080 1080"><defs><style>.cls-1{fill:#60584c;}.cls-2{fill:#fc0;}</style></defs><path class="cls-1" d="M515.53.57C217.62,14-13,266.4.57,564.37s265.91,528.47,563.86,515.07,528.53-266,515-563.89S813.54-13,515.53.57Z"/><path class="cls-2" d="M402.14,555.33c.67,47.65,3.09,102.08,11.47,145.32a1.64,1.64,0,0,0,.28.8c6.65,9.76,13.58,48.49,19.05,60.63a3.82,3.82,0,0,0,1.21,1.19c3.76,2.57,16.78,7.75,25.31,6.7a1,1,0,0,0,1.06-.93h0c1.92-10,.69-19.44-.45-37.82-3-45.23-6.29-117.2-5.77-160.84C489.7,590.1,622.46,685.27,691.68,705A4.53,4.53,0,0,0,696,704c3.67-3.84,6-4.51,10.2-6.28,1.92-.89,4.17-6,3.67-11.84,43.85-1.62,104.67-18.45,136.58-58.54,22-27.58,21.6-66,7.9-78.92-1.27-1.13-3.86-1.79-5.74-3.65-20.91-20.82-49.3-26.42-79.73-24.6C738,522,713.22,534.94,694,547.08c0,0-.2,0-.24-.13-1.66-29.55,10.15-67.07-.2-91.35a2,2,0,0,0-2.16-1.29c-9.24.15-27.21,6.63-31.1,10a3.83,3.83,0,0,0-1.4,3.15c-.11,6.89-2.16,42.79-5.66,46.25-.63.65-.44,1.31-.63,2.78-4.08,43.2-4,79.92-.28,110.9.13,1,4.32,5.4,9.33,7.21,3.44,1.25,17.15-1.58,28.94-6a17.72,17.72,0,0,1,4.56-.78c1.21,0,1.69-1.49,1.58-2.92a57.39,57.39,0,0,1,.3-10.15c6.76-27.41,34.73-63.07,70-68.52,22.46-3.52,37.28,4.32,47.52,15.54,2.67,2.93,5.87,25-6.87,48.85-9.2,17.28-27.78,32.4-52.88,41.91-26.42,10-52.94,12.14-80.42,11.14-26.8-16.15-71.73-53.59-111.15-68.49C557,592.74,545.84,583,540.89,579c-19.13-15.4-60.06-42.07-84.36-58.42-.18-.16-.18-.33-.18-.67a11.66,11.66,0,0,1,.33-5.12,3.53,3.53,0,0,1,1.88-2.16c8.53-5.66,44.49-25.34,47.52-30a20.76,20.76,0,0,1,4-2.74c54-32.75,148.89-77.14,190.36-120a3.67,3.67,0,0,0,.59-2.5,19.67,19.67,0,0,1,.77-5.18,26.82,26.82,0,0,0,.44-16,2.65,2.65,0,0,0-1.62-1.75c-22.12-2.16-51.54,11.3-78.89,36.93-8.12,7.61-14.64,10.44-21.85,14.54-31,17.6-104.4,63.18-139.43,85.73a.54.54,0,0,1-.89-.43C461.75,430,469.64,371.3,478.34,326a4.55,4.55,0,0,0-.6-3.26c-2.85-4.32-4.54-9.44-5.58-10.52a1.49,1.49,0,0,0-.47-.39c-5.94-3-10.69-1.88-15.12-.86s-9.83,4.51-16.78,6.18a2.43,2.43,0,0,0-1.84,1.47c-16.76,41.62-31.88,112.86-34.82,168.09,0,.19,0,.58-.37.34a809.63,809.63,0,0,0-85.25-47.41,6,6,0,0,0-1.32-.35c-6.48-.79-13.95-5.55-20.91-9.69-7.69-4.65-22.81-15.34-32.25-20.8a4.27,4.27,0,0,0-3.21-.76c-7.56,1.3-23.29,11.81-27.65,18.62-1.41,2.16,1.49,6.8,1.14,9.67a.9.9,0,0,0,.26.85c8.77,9,31.88,25,56.57,38.23,28.51,15.38,57.52,30,69.55,37.6a2.55,2.55,0,0,1,.74.76,21.63,21.63,0,0,0,6.48,4.86c5.68,3.39,6.87,3.78,8.51,5.25.75.71.39,1.51-.39,2.16-30.24,21-90.07,59.87-118.67,79.08a259.78,259.78,0,0,1-23.76,11.34c-7.28,3-13.82,7.82-16.35,13.3-.5,1,.17,1.6.93,1.84,4.6,1.29,5.72,4.53,8.92,5.79a11.27,11.27,0,0,0,3.61.41c5.94.23,16.45-3.8,35.22-12,21.41-9.53,88.05-50.4,96.1-55.08a.77.77,0,0,1,.54-.18c3.87,0,7.45-2.87,11-5.61a117.7,117.7,0,0,1,18.92-11.28l10.8-6Z"/></svg>