<svg id="레이어_1" data-name="레이어 1" xmlns="http://www.w3.org/2000/svg" viewBox="0 0 1080 1080"><defs><style>.cls-1{fill:#005bac;}.cls-2{fill:#fabe00;}</style></defs><circle class="cls-1" cx="540" cy="540" r="540"/><polygon class="cls-2" points="646.45 270 539.98 323.44 433.51 270 539.98 472.41 646.45 270"/><path class="cls-2" d="M683.7,426.45,682.11,425,758,393.12V286.2L626,342.49S554.58,477.92,552.92,481.1a111,111,0,1,1-25.92,0c-1.6-3.11-73-138.61-73-138.61L322.23,286.2V393.12l75.94,31.95-1.64,1.4c-91,79.33-100.49,217.42-21.16,308.44S592.8,835.4,683.81,756.07,784.3,538.65,705,447.63a217.85,217.85,0,0,0-21.16-21.16Z"/></svg>