<svg id="레이어_1" data-name="레이어 1" xmlns="http://www.w3.org/2000/svg" viewBox="0 0 1080 1080"><defs><style>.cls-1{fill:#0035b2;}.cls-2{fill:#fff;}</style></defs><path class="cls-1" d="M515.53.57C217.62,14-13,266.4.57,564.37s265.91,528.47,563.86,515.07,528.53-266,515-563.89S813.54-13,515.53.57Z"/><path class="cls-2" d="M600.87,630.19c58.64-10.26,256.65-50.92,232.22-163.91-8.77-40.52-50.46-85.1-113.34-116.1-50.28-22.61-111.62-35.77-180.53-35.77-191.09,0-324,101-324,225.62,0,86.76,64.52,162,168.25,199.8C405.48,681.9,493.11,648.87,600.87,630.19Z"/><path class="cls-2" d="M540.45,670.15c-85.7,10.8-125,38.42-150.29,72.05,43.68,14.95,93.92,23.35,149,23.35,191.12,0,324-101,324-225.52a172.84,172.84,0,0,0-3.07-32.42C853.78,653.77,634.2,658.5,540.45,670.15Z"/><path class="cls-1" d="M354.8,422.22H290.72l.75,1.84c2.85,6.91,2.68,19.44,2.49,30.67,0,2.63-.11,148-.11,148h1.27c.3,0,29.21,1,56.59,1,57.24,0,95.71-38.88,95.71-96.54C447.42,455.59,411.09,422.22,354.8,422.22Zm-33.48,16.26c3.72-.3,15.12-1.12,23.18-1.12,48.95,0,71.75,23.76,71.75,74.65,0,52.64-20.26,78.26-61.94,78.26-30.5,0-33-1.47-33-19.57Z"/><path class="cls-1" d="M619.47,601.5c-1-10.61-1.37-17.82-1.37-24v-63.2H587.67l1,1.94s3.09,6.11,3.09,19.44c0,.43.11,43.91-1.1,54.22a106.69,106.69,0,0,1-23.56,2.57c-48.32,0-72.84-27.76-72.84-82.41,0-41.73,27.61-72.85,67.09-75.73,20.78-1.49,40.76,4.17,53.37,15.12l2.16,1.93V425.72l-1-.2a222.36,222.36,0,0,0-41.69-5c-69.58,0-111.09,36.72-111.09,97.93,0,65.3,50.72,88.56,98.19,88.56a373.52,373.52,0,0,0,57.09-4.15l1.21-.19Z"/><path class="cls-1" d="M728.11,503.61c17.41-4.64,34.09-20,34.09-42.4,0-24.43-22.06-39-59-39H648.41l.37,1.62s1.62,7.26,1.62,23.91V604.22h1.36c.19,0,21.6-.43,48-.43,46.09,0,72.49-20,72.49-54.89C772.22,527.3,754.36,509.23,728.11,503.61Zm-50.37,8.77h14.15c32.68,0,49.2,12.83,49.2,38.12,0,26.68-14.25,39.66-43.58,39.66-14.22,0-19.77-5.14-19.77-18.32Zm.11-76h17.91c28.18,0,40.19,8.53,40.19,28.51,0,22.75-14.77,33.33-46.52,33.33H677.74Z"/></svg>