<svg id="레이어_1" data-name="레이어 1" xmlns="http://www.w3.org/2000/svg" viewBox="0 0 1080 1080"><defs><style>.cls-1{fill:#0068b8;}.cls-2{fill:#fff;}</style></defs><circle class="cls-1" cx="540" cy="540" r="540"/><path class="cls-2" d="M384.48,539.78c72.86,46.85,79.92,88.78,64.26,123.34-6.48,14.43-20.17,27-20.17,27s61.84-29.83,81.41-73.44c21.88-48.71-1.82-100.29-68.09-145-54.9-37-32.09-72-32.09-72s18.1-46.11,85.7-46.09c69.12,0,74.22,46.48,74.22,46.48l27-53.5c3.78-8.43-44-32.12-112.69-32.14-67.63,0-130,27.19-154.31,81.36C300,461.94,337.72,509.76,384.48,539.78Z"/><path class="cls-2" d="M829,614.76c9.49-26.61,63.62-160.38-29.52-160.4-63.57,0-135.5,49.87-135.5,49.87L727.1,357.35s17.47-35.21-22.92-35.23H639.1s24.15,9.53,2.81,57.07l-94.13,214.4S494.34,709.52,386.86,709.5c-141.46,0-130.51-143.75-130.51-143.75L205.2,678.63s45.73,86.9,157.57,86.92c67.63,0,110.53-28.51,131.37-51,0,0-20.19,47,33.38,47h55s-15.49-10.8-14.34-24.49,19.55-56.94,32-79.58S674.31,525,746.19,518.1c64.8-6.2-32.85,197.34-32.85,197.34s-18.86,44.06,30.13,45.36,58,1.25,58,1.25-18.43-13.78-9.33-38.88S819.5,641.39,829,614.76Z"/></svg>