<svg id="레이어_1" data-name="레이어 1" xmlns="http://www.w3.org/2000/svg" xmlns:xlink="http://www.w3.org/1999/xlink" viewBox="0 0 1080 1080"><defs><style>.cls-1{fill:none;}.cls-2{fill:#0062ac;}.cls-3{fill:#fff;}.cls-4{fill:#007bc6;}.cls-5{clip-path:url(#clip-path);}.cls-6{fill:#007dc7;}.cls-7{fill:#007fc9;}.cls-8{fill:#0080ca;}.cls-9{fill:#0081cb;}.cls-10{fill:#0083cc;}.cls-11{fill:#0085ce;}.cls-12{fill:#0087cf;}.cls-13{fill:#0089d1;}.cls-14{fill:#008bd2;}.cls-15{fill:#008dd3;}.cls-16{fill:#008fd5;}.cls-17{fill:#0091d6;}.cls-18{fill:#0093d7;}.cls-19{fill:#0095d8;}.cls-20{fill:#0098da;}.cls-21{fill:#009adb;}.cls-22{fill:#009cdd;}.cls-23{fill:#009fde;}.cls-24{fill:#00a1df;}.cls-25{fill:#00a3e1;}.cls-26{fill:#00a5e2;}.cls-27{fill:#00a7e3;}.cls-28{fill:#00aae4;}.cls-29{fill:#00ace6;}.cls-30{fill:#00afe7;}.cls-31{fill:#00b1e9;}.cls-32{fill:#10b4ea;}.cls-33{fill:#18b6ec;}.cls-34{fill:#24b9ed;}.cls-35{fill:#2dbbee;}.cls-36{fill:#36bdef;}.cls-37{fill:#43bfef;}.cls-38{fill:#50c1f0;}.cls-39{fill:#5ac3f0;}.cls-40{fill:#65c6f1;}.cls-41{fill:#6dc8f2;}.cls-42{fill:#74caf2;}.cls-43{fill:#7dccf3;}.cls-44{fill:#83cff3;}.cls-45{fill:#8ad1f4;}.cls-46{fill:#91d3f4;}.cls-47{fill:#98d5f5;}.cls-48{fill:#9fd8f6;}.cls-49{fill:#a5daf6;}.cls-50{fill:#aadcf7;}.cls-51{fill:#b1dff7;}.cls-52{fill:#b6e1f8;}.cls-53{fill:#bbe3f8;}.cls-54{fill:#c1e5f9;}.cls-55{fill:#c6e7f9;}.cls-56{fill:#cbe9fa;}.cls-57{fill:#d0ebfa;}.cls-58{fill:#d5edfa;}.cls-59{fill:#dbeffb;}.cls-60{fill:#dff1fb;}.cls-61{fill:#e4f3fc;}.cls-62{fill:#e9f5fc;}.cls-63{fill:#edf7fd;}.cls-64{fill:#f1f9fd;}.cls-65{fill:#f7fbfd;}.cls-66{fill:#fbfdff;}</style><clipPath id="clip-path"><circle class="cls-1" cx="540" cy="538.86" r="308.88"/></clipPath></defs><path class="cls-2" d="M515.53.57C217.62,14-13,266.4.57,564.37s265.91,528.47,563.86,515.07,528.53-266,515-563.89S813.54-13,515.53.57Z"/><path class="cls-3" d="M864,540C864,719,718.94,864,540,864S216,719,216,540,361.06,216,540,216,864,361.06,864,540Z"/><path class="cls-4" d="M540,847.74c170.59,0,308.88-138.29,308.88-308.88S710.59,230,540,230,231.12,368.27,231.12,538.86,369.41,847.74,540,847.74Z"/><g class="cls-5"><path class="cls-4" d="M541.3,687.9c135.67,0,251.94,37.84,301.83,91.58a312.42,312.42,0,0,0,25.92-125c0-177.25-146.88-320.76-327.75-320.76S213.49,477.21,213.49,654.49a313,313,0,0,0,25.92,125C289.2,725.77,405.56,687.9,541.3,687.9Z"/><path class="cls-6" d="M541.27,688.22c135.29,0,251.45,37.55,301.13,90.85a308.86,308.86,0,0,0,25.92-124c0-175.85-146.45-318.62-326.89-318.62S214.29,479.24,214.29,655.11a308,308,0,0,0,25.92,124C289.74,725.77,405.89,688.22,541.27,688.22Z"/><path class="cls-7" d="M541.21,688.53c135,0,250.71,37.32,300.24,90.16a304.83,304.83,0,0,0,25.77-123c0-174.45-146.08-316.53-326.16-316.53S214.9,481.27,214.9,655.74a302.55,302.55,0,0,0,25.92,123C290.37,725.77,406.19,688.53,541.21,688.53Z"/><path class="cls-8" d="M541.12,688.87c134.66,0,250.11,37,299.51,89.38a299.18,299.18,0,0,0,25.72-122c0-173-145.69-314.39-325.23-314.39S216,483.31,216,656.34a300.17,300.17,0,0,0,25.68,121.91C291,725.77,406.51,688.87,541.12,688.87Z"/><path class="cls-9" d="M541.12,689.22c134.31,0,249.44,36.72,298.71,88.67a295.35,295.35,0,0,0,25.66-121c0-171.55-145.3-312.23-324.37-312.23S216.69,485.38,216.69,657a296.34,296.34,0,0,0,25.68,121C291.6,725.77,406.81,689.22,541.12,689.22Z"/><path class="cls-10" d="M541.12,689.56c133.92,0,248.75,36.31,297.91,88a292.77,292.77,0,0,0,25.6-120c0-170.14-144.94-310.11-323.51-310.11s-323.63,140-323.63,310.2a292.57,292.57,0,0,0,25.62,120C292.18,725.87,407.14,689.56,541.12,689.56Z"/><path class="cls-11" d="M541.06,689.91c133.55,0,248.12,36.07,297.13,87.22a287.54,287.54,0,0,0,25.53-119c0-168.72-144.5-308-322.66-308s-322.73,139.28-322.73,308a288.17,288.17,0,0,0,25.53,119C292.79,726,407.44,689.91,541.06,689.91Z"/><path class="cls-12" d="M541,690.3c133.25,0,247.54,35.68,296.4,86.4a283.38,283.38,0,0,0,25.47-117.89C862.86,491.51,718.7,353,541,353S219.18,491.51,219.18,658.81A283.61,283.61,0,0,0,244.6,776.72C293.39,726,407.68,690.3,541,690.3Z"/><path class="cls-13" d="M540.93,690.6c132.93,0,246.91,35.38,295.68,85.75a280.76,280.76,0,0,0,25.38-117c0-165.89-143.81-303.76-321.06-303.76s-321,137.87-321,303.78a280.79,280.79,0,0,0,25.38,117C294,726,408,690.6,540.93,690.6Z"/><path class="cls-14" d="M540.86,691c132.56,0,246.24,35.06,294.91,85a276.51,276.51,0,0,0,25.36-116c0-164.46-143.51-301.58-320.27-301.58S220.75,495.51,220.75,660a277.78,277.78,0,0,0,25.23,116C294.65,726.05,408.24,691,540.86,691Z"/><path class="cls-15" d="M540.86,691.31c132.26,0,245.57,34.74,294.09,84.24a272,272,0,0,0,25.31-114.93c0-163-143-299.48-319.4-299.48S221.53,497.56,221.53,660.6a273.12,273.12,0,0,0,25.25,114.85C295.27,726.05,408.63,691.31,540.86,691.31Z"/><path class="cls-16" d="M540.86,691.66c131.76,0,244.88,34.56,293.27,83.5a268.6,268.6,0,0,0,25.16-114c0-161.61-142.56-297.32-318.43-297.32S222.33,499.57,222.33,661.22a269.15,269.15,0,0,0,25.14,113.94C295.92,726.11,408.93,691.66,540.86,691.66Z"/><path class="cls-17" d="M540.82,692c131.5,0,244.23,34.13,292.51,82.77a263.8,263.8,0,0,0,25.12-113c0-160.17-142.24-295.17-317.52-295.17s-317.82,135-317.82,295.21a266,266,0,0,0,25.12,112.92C296.44,726.11,409.26,692,540.82,692Z"/><path class="cls-18" d="M540.76,692.35c131.17,0,243.67,33.76,291.75,82.08a260.77,260.77,0,0,0,25-112.06c0-158.76-141.87-293-316.76-293S224,503.61,224,662.37a261.74,261.74,0,0,0,25,112C297.06,726.11,409.56,692.35,540.76,692.35Z"/><path class="cls-19" d="M540.76,692.67c130.72,0,243,33.55,291,81.26A257.55,257.55,0,0,0,856.7,663c0-157.3-141.5-290.91-315.94-290.91s-316,133.61-316,291a257,257,0,0,0,25,110.87C297.63,726.22,409.86,692.67,540.76,692.67Z"/><path class="cls-20" d="M540.67,693c130.46,0,242.39,33.2,290.17,80.57a253.55,253.55,0,0,0,25-110c0-155.93-141.17-288.83-315.14-288.83S225.55,507.61,225.55,663.62a253.93,253.93,0,0,0,24.86,110C298.25,726.22,410.18,693,540.67,693Z"/><path class="cls-21" d="M540.65,693.37c130.07,0,241.75,32.87,289.44,79.76a249.91,249.91,0,0,0,24.82-108.9c0-154.51-140.77-286.68-314.26-286.68S226.37,509.77,226.37,664.25a251.6,251.6,0,0,0,24.77,108.91C298.88,726.26,410.51,693.37,540.65,693.37Z"/><path class="cls-22" d="M540.58,693.73c129.8,0,241.08,32.6,288.69,79.06a246.27,246.27,0,0,0,24.82-108c0-153.06-140.4-284.52-313.51-284.52S227.12,511.75,227.12,664.87a247.69,247.69,0,0,0,24.78,108C299.48,726.33,410.77,693.73,540.58,693.73Z"/><path class="cls-23" d="M540.58,694.08c129.34,0,240.45,32.25,287.82,78.32a242.57,242.57,0,0,0,24.8-107c0-151.58-140-282.35-312.6-282.35S227.94,513.83,227.94,665.41a243.54,243.54,0,0,0,24.78,107C300.05,726.33,411.05,694.08,540.58,694.08Z"/><path class="cls-24" d="M540.5,694.42c129.06,0,239.76,32,287.08,77.57a239,239,0,0,0,24.73-105.84c0-150.19-139.68-280.28-311.81-280.28s-311.76,130-311.76,280.24A238.79,238.79,0,0,0,253.37,772C300.61,726.39,411.39,694.42,540.5,694.42Z"/><path class="cls-25" d="M540.5,694.77c128.69,0,239.15,31.62,286.28,76.81a235.36,235.36,0,0,0,24.67-104.91c0-148.8-139.23-278.12-311-278.12S229.56,517.87,229.56,666.67a236.14,236.14,0,0,0,24.52,104.91C301.3,726.39,411.67,694.77,540.5,694.77Z"/><path class="cls-26" d="M540.43,695.11c128.39,0,238.51,31.32,285.6,76.1a233.5,233.5,0,0,0,24.49-103.92c0-147.37-138.8-276.07-310.09-276.07S230.36,519.92,230.36,667.29a232.06,232.06,0,0,0,24.52,103.84C301.86,726.43,412,695.11,540.43,695.11Z"/><path class="cls-27" d="M540.43,695.53c128,0,237.82,31.06,284.71,75.38A228.22,228.22,0,0,0,849.66,668c0-146-138.46-273.91-309.23-273.91S231.12,522,231.12,667.9a229.75,229.75,0,0,0,24.34,102.9C302.4,726.48,412.3,695.53,540.43,695.53Z"/><path class="cls-28" d="M540.37,695.81c127.65,0,237.19,30.67,284,74.65a224.51,224.51,0,0,0,24.43-102c0-144.48-138.07-271.75-308.38-271.75S232,524,232,668.53a225.46,225.46,0,0,0,24.27,101.93C303.11,726.48,412.56,695.81,540.37,695.81Z"/><path class="cls-29" d="M540.3,696.11c127.29,0,236.57,30.43,283.22,73.94a221.05,221.05,0,0,0,24.34-100.94c0-143.08-137.67-269.63-307.56-269.63S232.76,526,232.76,669.11A222,222,0,0,0,257,770.05C303.65,726.54,412.93,696.11,540.3,696.11Z"/><path class="cls-30" d="M540.3,696.52c127,0,235.94,30,282.42,73.11A217.51,217.51,0,0,0,847,669.71C847,528,709.71,402.22,540.28,402.22S233.56,528,233.56,669.71a218,218,0,0,0,24.24,99.92C304.28,726.54,413.27,696.52,540.3,696.52Z"/><path class="cls-31" d="M540.22,696.82c126.66,0,235.28,29.79,281.68,72.43a214.38,214.38,0,0,0,24.24-98.91c0-140.27-137-265.36-305.92-265.36S234.36,530.07,234.36,670.34a215.65,215.65,0,0,0,24.11,98.91C304.84,726.61,413.55,696.82,540.22,696.82Z"/><path class="cls-32" d="M540.19,697.17c126.23,0,234.62,29.46,280.8,71.69a211.32,211.32,0,0,0,24.17-98c0-138.78-136.64-263.22-305.07-263.22S235.18,532.12,235.18,670.9a211.43,211.43,0,0,0,24,98.07C305.47,726.63,413.9,697.17,540.19,697.17Z"/><path class="cls-33" d="M540.19,697.51c125.89,0,234,29.18,280.09,70.94a207.43,207.43,0,0,0,24.09-96.92c0-137.38-136.21-261.1-304.18-261.1S236,534.15,236,671.53a207.62,207.62,0,0,0,24,96.92C306.09,726.69,414.18,697.51,540.19,697.51Z"/><path class="cls-34" d="M540.11,697.86c125.58,0,233.43,28.83,279.35,70.18a204.3,204.3,0,0,0,24-95.89c0-136.08-135.78-259-303.37-259s-303.33,123-303.33,259A204.86,204.86,0,0,0,260.71,768C306.72,726.69,414.53,697.86,540.11,697.86Z"/><path class="cls-35" d="M540,698.2c125.28,0,232.78,28.54,278.64,69.49a200.32,200.32,0,0,0,24-94.91c0-134.59-135.44-256.87-302.58-256.87S237.6,538.19,237.6,672.78a201.18,201.18,0,0,0,23.76,94.91C307.3,726.74,414.72,698.2,540,698.2Z"/><path class="cls-36" d="M540,698.53c124.87,0,232.14,28.21,277.84,68.73a197.26,197.26,0,0,0,23.76-93.87c0-133.15-135.06-254.73-301.69-254.73S238.38,540.24,238.38,673.39a197.64,197.64,0,0,0,23.76,93.87C307.93,726.74,415.15,698.53,540,698.53Z"/><path class="cls-37" d="M540,699.31c124.74,0,231.81,28.08,277.43,68.29a194.38,194.38,0,0,0,23.76-93.31C841.26,542,706.45,421.21,540,421.21S238.79,542,238.79,674.29a196.06,196.06,0,0,0,23.76,93.31C308.25,727.39,415.26,699.31,540,699.31Z"/><path class="cls-38" d="M540,700.1C664.52,700.1,771.51,728,817.08,768a193.59,193.59,0,0,0,23.76-92.68c0-131.42-134.52-251.62-300.84-251.62S239.18,543.87,239.18,675.29A193.59,193.59,0,0,0,262.94,768C308.56,727.93,415.43,700.1,540,700.1Z"/><path class="cls-39" d="M540,700.88c124.35,0,231.12,27.71,276.7,67.42a190.76,190.76,0,0,0,23.76-92.09c0-130.55-134.4-250-300.42-250s-300.45,119.47-300.45,250a191.94,191.94,0,0,0,23.76,92.09C308.88,728.59,415.56,700.88,540,700.88Z"/><path class="cls-40" d="M540,701.72c124.18,0,230.82,27.46,276.31,67a189,189,0,0,0,23.76-91.47c0-129.6-134.31-248.4-300.05-248.4s-300,118.8-300,248.4a189.73,189.73,0,0,0,23.76,91.47C309.18,729.18,415.76,701.72,540,701.72Z"/><path class="cls-41" d="M540,702.48c124,0,230.58,27.32,276,66.49a187.2,187.2,0,0,0,23.76-90.85c0-128.81-134.11-246.85-299.61-246.85s-299.59,118-299.59,246.85A187.21,187.21,0,0,0,264,769C309.48,729.8,416,702.48,540,702.48Z"/><path class="cls-42" d="M540,703.21c123.83,0,230.17,27.22,275.55,66.08a184.73,184.73,0,0,0,23.76-90.22c0-127.92-133.92-245.27-299.25-245.27S240.8,551.15,240.8,679.07a185.56,185.56,0,0,0,23.58,90.22C309.81,730.43,416.12,703.21,540,703.21Z"/><path class="cls-43" d="M540,704c123.66,0,229.87,27,275.14,65.64a183,183,0,0,0,23.65-89.57C838.81,553,705.07,436.33,540,436.33S241.14,553,241.14,680a183.6,183.6,0,0,0,23.57,89.64C310.11,731,416.32,704,540,704Z"/><path class="cls-44" d="M540,704.83c123.49,0,229.56,26.77,274.75,65.17a180.73,180.73,0,0,0,23.76-89c0-126.25-133.62-242.22-298.45-242.22S241.6,554.76,241.6,681a180.93,180.93,0,0,0,23.56,89C310.44,731.6,416.43,704.83,540,704.83Z"/><path class="cls-45" d="M540,705.61c123.36,0,229.26,26.64,274.45,64.69a178.92,178.92,0,0,0,23.63-88.36c0-125.28-133.38-240.63-298.08-240.63S241.92,556.59,241.92,681.92a179.74,179.74,0,0,0,23.52,88.43C310.74,732.25,416.6,705.68,540,705.61Z"/><path class="cls-46" d="M540,706.33c123.12,0,229,26.43,274,64.28a177.48,177.48,0,0,0,23.52-87.76c0-124.53-133.18-239.07-297.56-239.07s-297.63,114.48-297.63,239a178.29,178.29,0,0,0,23.46,87.83C311,732.83,416.73,706.33,540,706.33Z"/><path class="cls-47" d="M540,707.19c123,0,228.61,26.22,273.65,63.78a175.5,175.5,0,0,0,23.54-87.13c0-123.6-133.05-237.49-297.19-237.49S242.78,560.24,242.78,683.82A175.76,175.76,0,0,0,266.18,771C311.28,733.41,416.88,707.19,540,707.19Z"/><path class="cls-48" d="M540,708c122.8,0,228.25,26.09,273.26,63.39a172.77,172.77,0,0,0,23.5-86.61C836.76,562,703.88,448.85,540,448.85S243.24,562,243.24,684.73a173.54,173.54,0,0,0,23.35,86.57C311.6,734,417.12,708,540,708Z"/><path class="cls-49" d="M540,708.74c122.67,0,227.94,25.92,272.89,62.93a171.29,171.29,0,0,0,23.48-85.93c0-122-132.73-234.29-296.37-234.29S243.6,563.92,243.6,685.72a171.51,171.51,0,0,0,23.35,86C311.93,734.66,417.29,708.79,540,708.74Z"/><path class="cls-50" d="M540,709.54c122.47,0,227.69,25.71,272.51,62.51a169.37,169.37,0,0,0,23.41-85.36c0-121-132.49-232.78-295.92-232.78S244.08,565.69,244.08,686.65a169.84,169.84,0,0,0,23.35,85.4C312.29,735.25,417.51,709.59,540,709.54Z"/><path class="cls-51" d="M540,710.3c122.3,0,227.3,25.55,272.16,62.06a167.55,167.55,0,0,0,23.35-84.7c0-120.2-132.34-231.12-295.51-231.12S244.38,567.63,244.38,687.66a168,168,0,0,0,23.46,84.74C312.53,735.85,417.64,710.36,540,710.3Z"/><path class="cls-52" d="M540,711.12c122.17,0,227,25.34,271.77,61.58a165.09,165.09,0,0,0,23.35-84.11C835.12,569.25,703,458.94,540,458.94S244.79,569.36,244.79,688.53a166.45,166.45,0,0,0,23.29,84.24C312.92,736.57,417.81,711.14,540,711.12Z"/><path class="cls-53" d="M540,711.9c121.93,0,226.8,25.14,271.4,61.15a163.57,163.57,0,0,0,23.33-83.49c0-118.47-132-228.09-294.73-228.09s-294.75,109.68-294.75,228a164.35,164.35,0,0,0,23.19,83.59C313.2,737,418,712,540,711.9Z"/><path class="cls-54" d="M540,712.68c121.78,0,226.37,25,271,60.71a162,162,0,0,0,23.26-82.9C834.28,573,702.52,464,540,464S245.59,573,245.59,690.47a162.37,162.37,0,0,0,23.24,83C313.55,737.67,418.2,712.81,540,712.68Z"/><path class="cls-55" d="M540,713.5c121.61,0,226.07,24.77,270.63,60.22a159.87,159.87,0,0,0,23.24-82.28c0-116.64-131.61-224.94-293.76-224.94s-294,108.3-294,224.94a160.84,160.84,0,0,0,23.09,82.34C313.87,738.27,418.31,713.5,540,713.5Z"/><path class="cls-56" d="M540,714.25c121.39,0,225.74,24.65,270.28,59.81a158.15,158.15,0,0,0,23.22-81.67C833.5,576.55,702.06,469,540,469S246.43,576.73,246.43,692.35a159.23,159.23,0,0,0,23.09,81.76C314.11,738.9,418.48,714.27,540,714.25Z"/><path class="cls-57" d="M540,715.07c121.31,0,225.44,24.41,270,59.34a156.19,156.19,0,0,0,23.07-81c0-115-131.22-221.84-293.05-221.84S246.84,578.43,246.84,693.37A157.24,157.24,0,0,0,270,774.47C314.41,739.48,418.69,715.09,540,715.07Z"/><path class="cls-58" d="M540,715.81c121.13,0,225.12,24.25,269.52,58.94a154.2,154.2,0,0,0,23.1-80.43C832.62,580.16,701.57,474,540,474S247.19,580.18,247.19,694.32a155.45,155.45,0,0,0,23.07,80.56C314.73,740.06,418.89,715.87,540,715.81Z"/><path class="cls-59" d="M540,716.63c121,0,224.81,24.06,269.16,58.47a152.64,152.64,0,0,0,23.09-79.92C832.25,581.93,701.37,476.5,540,476.5S247.6,582.1,247.6,695.18a153.61,153.61,0,0,0,23,79.92C315,740.69,419,716.63,540,716.63Z"/><path class="cls-60" d="M540,717.41c120.7,0,224.51,23.91,268.75,58.06a151.21,151.21,0,0,0,23.11-79.25c0-112.32-130.72-217.15-291.86-217.15S248,583.9,248,696.15a150.41,150.41,0,0,0,23.07,79.3C315.36,741.32,419.17,717.41,540,717.41Z"/><path class="cls-61" d="M540,718.18c120.53,0,224.19,23.76,268.34,57.63a148.86,148.86,0,0,0,23.09-78.62c0-111.54-130.49-215.57-291.43-215.57S248.4,585.71,248.4,697.1a149.48,149.48,0,0,0,22.94,78.71C315.73,741.92,419.3,718.21,540,718.18Z"/><path class="cls-62" d="M540,719c120.42,0,223.8,23.53,268,57.16a147.73,147.73,0,0,0,23-78c0-110.66-130.34-214-291-214S248.83,587.53,248.83,698a147.82,147.82,0,0,0,22.9,78.08C316,742.51,419.52,719,540,719Z"/><path class="cls-63" d="M540,719.74c120.23,0,223.52,23.39,267.58,56.7a145,145,0,0,0,23-77.37c0-109.82-130.14-212.42-290.61-212.42S249.22,589.34,249.22,699a145.31,145.31,0,0,0,22.94,77.48C316.29,743.05,419.69,719.78,540,719.74Z"/><path class="cls-64" d="M540,720.54c120,0,223.17,23.2,267.24,56.27a143.28,143.28,0,0,0,23-76.79c0-108.93-130-210.86-290.2-210.86S249.7,591.15,249.7,700a143.7,143.7,0,0,0,22.83,76.88C316.66,743.74,419.86,720.58,540,720.54Z"/><path class="cls-65" d="M540,721.45c119.88,0,222.89,23,266.82,55.79a141.18,141.18,0,0,0,23-76.12C829.83,593,700,491.79,540,491.79S250,593.12,250,701a142.29,142.29,0,0,0,22.85,76.29C316.92,744.3,420.08,721.45,540,721.45Z"/><path class="cls-66" d="M540,722.11c119.73,0,222.48,22.84,266.48,55.37a139.93,139.93,0,0,0,23-75.47C829.44,594.8,699.84,494.3,540,494.3S250.56,594.89,250.56,701.94a140.44,140.44,0,0,0,22.79,75.6C317.22,745,420.16,722.18,540,722.11Z"/><path class="cls-3" d="M540,722.89c119.53,0,222.29,22.64,266.09,54.91A138.1,138.1,0,0,0,829,702.89c0-106.36-129.45-206.17-289-206.17S250.93,596.6,250.93,702.83a139.08,139.08,0,0,0,22.7,75.06C317.52,745.53,420.36,722.94,540,722.89Z"/></g><path class="cls-4" d="M540,616.79c-104.74,0-201.83,17.76-282,47.8,69.4,155.84,252,225.9,407.82,156.5a308.9,308.9,0,0,0,156.5-156.5C742,634.55,644.7,616.79,540,616.79Z"/></svg>