<svg id="레이어_1" data-name="레이어 1" xmlns="http://www.w3.org/2000/svg" viewBox="0 0 1080 1080"><defs><style>.cls-1{fill:#140064;}.cls-2{fill:#fff;}</style></defs><path class="cls-1" d="M515.53.57C217.62,14-13,266.4.57,564.37s265.91,528.47,563.86,515.07,528.53-266,515-563.89S813.54-13,515.53.57Z"/><polygon class="cls-2" points="315.77 446.56 270.24 446.56 198.35 530.26 198.35 446.56 162 446.56 162 629.17 198.35 629.17 198.35 545.25 272.62 629.17 318.15 629.17 237.34 537.87 315.77 446.56"/><polygon class="cls-2" points="918 629.17 863.39 566.01 916.36 502.85 877.17 502.85 830.99 557.5 830.99 446.56 794.64 446.56 794.64 629.17 830.99 629.17 830.99 574.37 878.04 629.17 918 629.17"/><path class="cls-2" d="M405.24,498.4c-15.27,0-28.32,6.48-39.05,15.62V446.56H329.86V566.83c0,36.2,23.95,66.51,69,66.51,40.52,0,69.12-28,69.12-67.2C467.88,529,443.36,498.4,405.24,498.4Zm-6.48,102a34.56,34.56,0,0,1-34.56-33.59v-1a34.56,34.56,0,1,1,34.56,34.56Z"/><path class="cls-2" d="M724.81,498.4a61,61,0,0,0-41.93,16v-12H646.55V629.23h36.33V558.11a26.81,26.81,0,0,1,53.59,0v71.12h36.59V546.49A48.43,48.43,0,0,0,724.81,498.4Z"/><path class="cls-2" d="M554.86,498.51c-41,0-69.77,28.08-69.77,67.2,0,37.11,24.8,67.74,63.33,67.74a55.91,55.91,0,0,0,43.42-21.78v17.56h32.87v-63.5h-.3l.3-.71C624.65,528.82,600.48,498.51,554.86,498.51Zm.78,101.74a34.56,34.56,0,1,1,34.56-34.56,34.56,34.56,0,0,1-34.56,34.56Z"/></svg>