<svg id="레이어_1" data-name="레이어 1" xmlns="http://www.w3.org/2000/svg" viewBox="0 0 1080 1080"><defs><style>.cls-1{fill:#009591;}.cls-2{fill:#fff;}</style></defs><path class="cls-1" d="M515.53.57C217.62,14-13,266.4.57,564.37s265.91,528.47,563.86,515.07,528.53-266,515-563.89S813.54-13,515.53.57Z"/><path class="cls-2" d="M659.58,616.15A107,107,0,0,0,652,590.4c-11.39-24.56-27.24-45.19-51-59a114.65,114.65,0,0,0-118.15.71A103.73,103.73,0,0,0,444,573.77,123,123,0,0,0,436.64,592c-9.61,30.63-9.28,71.79,8.1,99.75a50.32,50.32,0,0,0,23.76,20.77,34.82,34.82,0,0,0,30.91-2.39c11.62-7.5,13.72-21.82,11.54-34.56-2.75-16.31-4.84-32.4,1.14-48.26a36.93,36.93,0,0,1,8.64-13.71,32.25,32.25,0,0,1,8.19-5.6,34.22,34.22,0,0,1,20.39-3.32c12.07,1.94,22,11.34,27.37,22.35s6.82,23.48,7.41,35.73c2.57,53.33-10.16,108.56-23.76,159.84q-2.16,7.9-4.32,15.77c-1.15,4.06-3.24,9.22-.65,13.15a10.32,10.32,0,0,0,4.75,3.65c7.86,3.18,14.38-1.68,19.68-7,31.25-31.45,51.3-72,65-113.79a364.13,364.13,0,0,0,12.47-47.52c4-22.07,6.32-47.37,2.39-70.65"/><path class="cls-2" d="M883.44,369.62c0-8-7.09-13.3-14.69-13s-14.93,4.32-22,7c-137.55,52.29-292.7,62.23-437.66,41.32-24.79-3.56-49.91-8.64-74.88-12.48-15.58-2.42-31-5.94-46.74-7.15-13.42-1-30.11-1.52-41,7.84-14.32,12.33-13.31,35.72-5.19,51.21,9.74,18.58,26.81,32.4,44.54,43.07,17.28,10.26,37.82,21.23,58.32,19.92q83.1-5.33,165.72-16c93.93-12.21,192.38-23.76,280.56-60.14,28.85-11.92,57.3-26.78,82.07-46,4.52-3.37,11-9,11-15.51"/><path class="cls-2" d="M488.94,322.49a54.13,54.13,0,0,0,108.23,0,30.76,30.76,0,0,0-2.93-13c-4.65-9.83-9.85-14.58-9.36-26.37.72-15.9-19.67-16.11-30.62-16.11-12,0-24.67,1.66-35.47,7.08a54.26,54.26,0,0,0-29.9,47.17v1.26"/></svg>