<svg id="레이어_1" data-name="레이어 1" xmlns="http://www.w3.org/2000/svg" viewBox="0 0 1080 1080"><defs><style>.cls-1{fill:#002cb2;}.cls-2{fill:#fff;}</style></defs><path class="cls-1" d="M515.53.57C217.62,14-13,266.4.57,564.37s265.91,528.47,563.86,515.07,528.53-266,515-563.89S813.54-13,515.53.57Z"/><path class="cls-2" d="M346.21,483.69c-16-25-29-77.07-16.29-102.27L224.3,546.92c-10.8,17.06-11.34,45,0,62.64l120.14,188.8c10.8,16.74,35.76,31.24,61.17,31.24h161Z"/><path class="cls-2" d="M340.42,365c-11.75,30.68,6.26,87.42,20.32,109.39l57.7,87.8a41.84,41.84,0,0,1,4.47-10.32L563.74,329.43H405.41c-28.08,0-50.3,12.37-62.25,31.32Z"/><polygon class="cls-2" points="379.71 536.27 420.64 600.49 420.64 600.49 379.71 536.27"/><path class="cls-2" d="M733.79,596.32c16.05,25,29,77.07,16.29,102.27L855.7,533.09c10.8-17.06,11.34-45,0-62.64L735.56,281.65c-10.79-16.74-35.76-31.24-61.17-31.24H513.45Z"/><path class="cls-2" d="M739.58,715c11.75-30.68-6.26-87.42-20.32-109.39l-57.7-87.8a41.84,41.84,0,0,1-4.47,10.32L516.26,750.58H674.59c28.08,0,50.3-12.37,62.25-31.32Z"/><polygon class="cls-2" points="700.29 543.74 659.36 479.52 659.36 479.52 700.29 543.74"/></svg>